<?xml version="1.0" encoding="UTF-8"?>
<svg xmlns="http://www.w3.org/2000/svg" version="1.1" width="100" height="100" viewBox="0 0 100 100"><rect x="0" y="0" width="100" height="100" fill="#ffffff"/><g transform="scale(3.03)"><g transform="translate(0,0)"><path fill-rule="evenodd" d="M8 0L8 1L10 1L10 0ZM11 0L11 2L13 2L13 4L14 4L14 3L15 3L15 0L13 0L13 1L12 1L12 0ZM18 0L18 1L21 1L21 2L22 2L22 4L23 4L23 2L24 2L24 7L25 7L25 1L24 1L24 0L23 0L23 1L21 1L21 0ZM13 1L13 2L14 2L14 1ZM16 1L16 2L17 2L17 1ZM8 2L8 5L9 5L9 6L8 6L8 7L9 7L9 8L8 8L8 9L7 9L7 8L6 8L6 9L7 9L7 10L6 10L6 11L8 11L8 12L9 12L9 13L7 13L7 12L6 12L6 13L7 13L7 14L5 14L5 11L3 11L3 13L4 13L4 14L5 14L5 15L3 15L3 17L1 17L1 15L2 15L2 14L1 14L1 15L0 15L0 18L3 18L3 17L4 17L4 19L3 19L3 20L4 20L4 22L3 22L3 21L2 21L2 23L1 23L1 24L0 24L0 25L1 25L1 24L2 24L2 25L3 25L3 24L5 24L5 25L8 25L8 26L9 26L9 24L10 24L10 22L9 22L9 21L8 21L8 19L9 19L9 18L10 18L10 19L11 19L11 20L13 20L13 18L12 18L12 17L15 17L15 18L14 18L14 19L16 19L16 20L17 20L17 22L16 22L16 23L18 23L18 24L17 24L17 26L16 26L16 25L15 25L15 26L12 26L12 27L15 27L15 30L14 30L14 28L13 28L13 29L12 29L12 28L10 28L10 27L11 27L11 26L10 26L10 27L9 27L9 28L10 28L10 29L11 29L11 30L12 30L12 31L14 31L14 32L17 32L17 33L18 33L18 31L19 31L19 32L21 32L21 33L22 33L22 32L23 32L23 31L22 31L22 32L21 32L21 30L20 30L20 31L19 31L19 29L22 29L22 30L23 30L23 29L25 29L25 30L24 30L24 32L25 32L25 33L26 33L26 32L27 32L27 33L28 33L28 32L30 32L30 33L31 33L31 32L30 32L30 29L31 29L31 31L32 31L32 32L33 32L33 31L32 31L32 28L31 28L31 26L30 26L30 24L29 24L29 23L28 23L28 24L26 24L26 23L27 23L27 22L28 22L28 21L26 21L26 20L29 20L29 21L30 21L30 22L31 22L31 24L32 24L32 25L33 25L33 24L32 24L32 23L33 23L33 21L31 21L31 20L30 20L30 18L31 18L31 19L32 19L32 20L33 20L33 19L32 19L32 18L33 18L33 16L31 16L31 14L32 14L32 13L30 13L30 14L28 14L28 15L27 15L27 14L26 14L26 13L25 13L25 10L26 10L26 11L27 11L27 13L29 13L29 12L28 12L28 11L31 11L31 12L32 12L32 11L33 11L33 8L32 8L32 9L31 9L31 8L28 8L28 9L26 9L26 8L24 8L24 9L23 9L23 10L22 10L22 8L23 8L23 5L21 5L21 6L20 6L20 4L19 4L19 2L18 2L18 3L17 3L17 6L16 6L16 7L17 7L17 8L16 8L16 11L17 11L17 9L18 9L18 8L19 8L19 10L20 10L20 9L21 9L21 10L22 10L22 11L24 11L24 14L25 14L25 15L22 15L22 13L21 13L21 11L19 11L19 12L17 12L17 13L16 13L16 12L15 12L15 14L13 14L13 13L14 13L14 11L15 11L15 9L14 9L14 11L13 11L13 10L12 10L12 9L11 9L11 11L13 11L13 12L12 12L12 15L11 15L11 18L10 18L10 17L7 17L7 16L9 16L9 14L11 14L11 13L10 13L10 12L9 12L9 10L10 10L10 9L9 9L9 8L10 8L10 7L11 7L11 8L13 8L13 6L14 6L14 7L15 7L15 5L16 5L16 4L15 4L15 5L12 5L12 7L11 7L11 6L10 6L10 3L9 3L9 2ZM11 3L11 4L12 4L12 3ZM9 6L9 7L10 7L10 6ZM17 6L17 7L18 7L18 6ZM19 6L19 7L20 7L20 8L22 8L22 6L21 6L21 7L20 7L20 6ZM0 8L0 9L1 9L1 10L0 10L0 11L1 11L1 12L0 12L0 13L2 13L2 11L1 11L1 10L2 10L2 9L4 9L4 10L5 10L5 9L4 9L4 8ZM24 9L24 10L25 10L25 9ZM28 9L28 10L27 10L27 11L28 11L28 10L31 10L31 11L32 11L32 10L31 10L31 9ZM19 12L19 13L20 13L20 12ZM15 14L15 15L16 15L16 14ZM5 15L5 16L4 16L4 17L5 17L5 16L7 16L7 15ZM13 15L13 16L14 16L14 15ZM17 15L17 18L16 18L16 19L17 19L17 18L19 18L19 19L20 19L20 20L18 20L18 21L21 21L21 22L19 22L19 23L20 23L20 26L21 26L21 27L23 27L23 28L24 28L24 27L23 27L23 25L22 25L22 23L23 23L23 21L24 21L24 22L25 22L25 23L26 23L26 22L25 22L25 21L24 21L24 20L26 20L26 15L25 15L25 19L24 19L24 18L22 18L22 17L18 17L18 15ZM28 15L28 16L30 16L30 15ZM15 16L15 17L16 17L16 16ZM6 17L6 18L7 18L7 19L6 19L6 20L7 20L7 19L8 19L8 18L7 18L7 17ZM27 17L27 18L28 18L28 17ZM31 17L31 18L32 18L32 17ZM11 18L11 19L12 19L12 18ZM1 19L1 20L0 20L0 22L1 22L1 20L2 20L2 19ZM4 19L4 20L5 20L5 19ZM22 19L22 20L21 20L21 21L22 21L22 20L24 20L24 19ZM6 21L6 22L8 22L8 21ZM11 21L11 23L12 23L12 21ZM14 21L14 23L13 23L13 25L14 25L14 24L15 24L15 21ZM4 22L4 23L5 23L5 24L7 24L7 23L5 23L5 22ZM25 25L25 28L28 28L28 25ZM15 26L15 27L16 27L16 28L17 28L17 30L18 30L18 29L19 29L19 28L20 28L20 27L19 27L19 26L18 26L18 27L16 27L16 26ZM26 26L26 27L27 27L27 26ZM29 26L29 29L28 29L28 31L27 31L27 32L28 32L28 31L29 31L29 29L30 29L30 26ZM18 27L18 28L19 28L19 27ZM8 29L8 33L10 33L10 31L9 31L9 29ZM26 29L26 30L27 30L27 29ZM25 31L25 32L26 32L26 31ZM12 32L12 33L13 33L13 32ZM0 0L0 7L7 7L7 0ZM1 1L1 6L6 6L6 1ZM2 2L2 5L5 5L5 2ZM26 0L26 7L33 7L33 0ZM27 1L27 6L32 6L32 1ZM28 2L28 5L31 5L31 2ZM0 26L0 33L7 33L7 26ZM1 27L1 32L6 32L6 27ZM2 28L2 31L5 31L5 28Z" fill="#000000"/></g></g></svg>
