<?xml version="1.0" encoding="UTF-8"?>
<svg xmlns="http://www.w3.org/2000/svg" version="1.1" width="100" height="100" viewBox="0 0 100 100"><rect x="0" y="0" width="100" height="100" fill="#ffffff"/><g transform="scale(3.03)"><g transform="translate(0,0)"><path fill-rule="evenodd" d="M9 0L9 1L8 1L8 2L9 2L9 3L8 3L8 4L10 4L10 2L11 2L11 1L12 1L12 0L11 0L11 1L10 1L10 0ZM16 0L16 1L15 1L15 2L14 2L14 3L13 3L13 4L11 4L11 5L10 5L10 7L11 7L11 5L12 5L12 8L13 8L13 9L11 9L11 8L6 8L6 9L5 9L5 8L0 8L0 9L2 9L2 10L3 10L3 9L5 9L5 10L6 10L6 11L7 11L7 12L6 12L6 13L8 13L8 15L9 15L9 16L8 16L8 17L9 17L9 18L10 18L10 19L7 19L7 18L6 18L6 17L7 17L7 16L5 16L5 18L4 18L4 17L1 17L1 16L4 16L4 14L3 14L3 15L2 15L2 13L1 13L1 10L0 10L0 14L1 14L1 16L0 16L0 20L1 20L1 21L0 21L0 25L1 25L1 22L3 22L3 23L2 23L2 25L3 25L3 24L4 24L4 23L5 23L5 24L6 24L6 25L7 25L7 24L6 24L6 23L8 23L8 21L9 21L9 23L10 23L10 24L8 24L8 27L9 27L9 28L8 28L8 33L9 33L9 31L10 31L10 30L13 30L13 31L14 31L14 32L13 32L13 33L14 33L14 32L15 32L15 33L20 33L20 31L21 31L21 32L22 32L22 33L23 33L23 32L24 32L24 33L25 33L25 32L24 32L24 31L27 31L27 32L28 32L28 33L29 33L29 31L30 31L30 32L31 32L31 33L32 33L32 32L31 32L31 31L32 31L32 30L31 30L31 29L33 29L33 28L31 28L31 27L32 27L32 26L33 26L33 24L32 24L32 26L31 26L31 25L30 25L30 24L31 24L31 23L32 23L32 22L33 22L33 21L32 21L32 20L31 20L31 19L32 19L32 18L33 18L33 17L32 17L32 16L31 16L31 15L32 15L32 14L33 14L33 13L31 13L31 15L30 15L30 13L29 13L29 10L28 10L28 8L27 8L27 9L26 9L26 8L25 8L25 6L24 6L24 7L23 7L23 6L22 6L22 7L21 7L21 6L20 6L20 9L18 9L18 8L16 8L16 7L17 7L17 5L15 5L15 4L14 4L14 3L17 3L17 4L19 4L19 5L20 5L20 4L21 4L21 5L22 5L22 4L23 4L23 5L24 5L24 4L25 4L25 3L24 3L24 4L23 4L23 3L22 3L22 2L23 2L23 1L24 1L24 0L23 0L23 1L22 1L22 2L21 2L21 3L20 3L20 2L19 2L19 1L20 1L20 0L19 0L19 1L18 1L18 0ZM9 1L9 2L10 2L10 1ZM17 1L17 3L19 3L19 4L20 4L20 3L19 3L19 2L18 2L18 1ZM21 3L21 4L22 4L22 3ZM13 4L13 5L14 5L14 4ZM8 5L8 7L9 7L9 5ZM13 6L13 8L14 8L14 9L13 9L13 10L11 10L11 9L10 9L10 11L13 11L13 12L10 12L10 13L13 13L13 14L16 14L16 15L12 15L12 14L11 14L11 15L12 15L12 16L9 16L9 17L13 17L13 16L14 16L14 18L13 18L13 20L11 20L11 21L13 21L13 22L10 22L10 23L11 23L11 25L9 25L9 27L10 27L10 29L13 29L13 30L14 30L14 31L15 31L15 32L19 32L19 31L20 31L20 30L21 30L21 31L24 31L24 27L23 27L23 29L22 29L22 28L20 28L20 26L19 26L19 25L17 25L17 24L20 24L20 25L22 25L22 26L24 26L24 25L22 25L22 24L23 24L23 23L24 23L24 24L27 24L27 22L25 22L25 21L27 21L27 20L28 20L28 19L26 19L26 18L25 18L25 17L28 17L28 18L29 18L29 17L30 17L30 19L29 19L29 20L30 20L30 21L28 21L28 24L30 24L30 23L29 23L29 22L30 22L30 21L31 21L31 20L30 20L30 19L31 19L31 16L30 16L30 15L29 15L29 13L28 13L28 16L26 16L26 14L25 14L25 13L27 13L27 12L28 12L28 11L27 11L27 10L25 10L25 8L23 8L23 9L22 9L22 8L21 8L21 9L20 9L20 10L18 10L18 9L16 9L16 8L15 8L15 7L16 7L16 6L15 6L15 7L14 7L14 6ZM18 6L18 7L19 7L19 6ZM29 8L29 9L30 9L30 8ZM31 8L31 10L33 10L33 9L32 9L32 8ZM6 9L6 10L8 10L8 11L9 11L9 10L8 10L8 9ZM14 9L14 11L16 11L16 12L13 12L13 13L19 13L19 14L20 14L20 15L19 15L19 16L17 16L17 17L16 17L16 16L15 16L15 17L16 17L16 18L14 18L14 20L13 20L13 21L14 21L14 22L13 22L13 23L12 23L12 25L11 25L11 26L12 26L12 25L15 25L15 24L17 24L17 22L20 22L20 23L21 23L21 24L22 24L22 22L21 22L21 21L20 21L20 20L22 20L22 21L23 21L23 22L24 22L24 21L23 21L23 19L18 19L18 18L17 18L17 17L19 17L19 18L20 18L20 16L22 16L22 17L21 17L21 18L22 18L22 17L23 17L23 18L24 18L24 20L25 20L25 18L24 18L24 17L23 17L23 16L25 16L25 14L24 14L24 13L25 13L25 12L26 12L26 11L25 11L25 12L24 12L24 13L23 13L23 14L22 14L22 15L21 15L21 14L20 14L20 13L21 13L21 12L23 12L23 10L24 10L24 9L23 9L23 10L22 10L22 9L21 9L21 10L20 10L20 11L18 11L18 10L17 10L17 11L16 11L16 10L15 10L15 9ZM2 11L2 12L3 12L3 13L5 13L5 11ZM17 11L17 12L18 12L18 11ZM30 11L30 12L31 12L31 11ZM8 12L8 13L9 13L9 12ZM19 12L19 13L20 13L20 12ZM5 14L5 15L7 15L7 14ZM9 14L9 15L10 15L10 14ZM17 14L17 15L18 15L18 14ZM23 14L23 15L24 15L24 14ZM28 16L28 17L29 17L29 16ZM11 18L11 19L12 19L12 18ZM16 18L16 19L17 19L17 20L18 20L18 19L17 19L17 18ZM1 19L1 20L3 20L3 19ZM4 19L4 21L3 21L3 22L4 22L4 21L6 21L6 22L7 22L7 21L6 21L6 20L7 20L7 19ZM14 20L14 21L15 21L15 22L14 22L14 23L13 23L13 24L14 24L14 23L15 23L15 22L17 22L17 21L15 21L15 20ZM25 25L25 28L28 28L28 25ZM29 25L29 28L30 28L30 29L31 29L31 28L30 28L30 27L31 27L31 26L30 26L30 25ZM13 26L13 27L14 27L14 26ZM15 26L15 28L13 28L13 29L15 29L15 28L16 28L16 29L18 29L18 30L15 30L15 31L19 31L19 30L20 30L20 28L19 28L19 29L18 29L18 28L16 28L16 27L19 27L19 26ZM26 26L26 27L27 27L27 26ZM21 29L21 30L22 30L22 29ZM25 29L25 30L28 30L28 31L29 31L29 30L28 30L28 29ZM30 30L30 31L31 31L31 30ZM11 31L11 32L10 32L10 33L11 33L11 32L12 32L12 31ZM0 0L0 7L7 7L7 0ZM1 1L1 6L6 6L6 1ZM2 2L2 5L5 5L5 2ZM26 0L26 7L33 7L33 0ZM27 1L27 6L32 6L32 1ZM28 2L28 5L31 5L31 2ZM0 26L0 33L7 33L7 26ZM1 27L1 32L6 32L6 27ZM2 28L2 31L5 31L5 28Z" fill="#000000"/></g></g></svg>
