<?xml version="1.0" encoding="UTF-8"?>
<svg xmlns="http://www.w3.org/2000/svg" version="1.1" width="100" height="100" viewBox="0 0 100 100"><rect x="0" y="0" width="100" height="100" fill="#ffffff"/><g transform="scale(3.03)"><g transform="translate(0,0)"><path fill-rule="evenodd" d="M8 0L8 1L9 1L9 2L8 2L8 5L9 5L9 4L11 4L11 5L10 5L10 10L9 10L9 8L8 8L8 10L6 10L6 11L7 11L7 12L5 12L5 13L3 13L3 15L2 15L2 13L1 13L1 11L0 11L0 13L1 13L1 14L0 14L0 17L1 17L1 19L0 19L0 22L1 22L1 21L2 21L2 18L3 18L3 19L4 19L4 22L3 22L3 23L1 23L1 24L0 24L0 25L1 25L1 24L2 24L2 25L3 25L3 24L4 24L4 25L5 25L5 24L6 24L6 25L7 25L7 24L6 24L6 23L7 23L7 22L5 22L5 18L4 18L4 17L5 17L5 16L4 16L4 15L7 15L7 16L6 16L6 17L7 17L7 18L6 18L6 19L7 19L7 20L6 20L6 21L8 21L8 20L9 20L9 19L7 19L7 18L10 18L10 21L9 21L9 22L10 22L10 26L9 26L9 23L8 23L8 26L9 26L9 27L10 27L10 29L8 29L8 33L12 33L12 32L13 32L13 33L14 33L14 32L13 32L13 30L14 30L14 31L15 31L15 32L16 32L16 33L23 33L23 32L21 32L21 29L22 29L22 31L23 31L23 29L25 29L25 30L24 30L24 32L25 32L25 33L26 33L26 32L27 32L27 33L28 33L28 32L30 32L30 33L31 33L31 32L30 32L30 29L31 29L31 31L32 31L32 32L33 32L33 31L32 31L32 29L33 29L33 27L31 27L31 26L30 26L30 24L29 24L29 23L28 23L28 24L26 24L26 23L27 23L27 22L28 22L28 21L26 21L26 20L29 20L29 21L30 21L30 22L31 22L31 24L32 24L32 25L33 25L33 24L32 24L32 23L33 23L33 21L31 21L31 20L30 20L30 18L31 18L31 19L32 19L32 20L33 20L33 19L32 19L32 18L33 18L33 16L31 16L31 14L32 14L32 13L30 13L30 14L28 14L28 15L27 15L27 14L26 14L26 13L25 13L25 10L26 10L26 11L27 11L27 13L29 13L29 12L28 12L28 11L31 11L31 12L32 12L32 11L33 11L33 8L32 8L32 9L31 9L31 8L28 8L28 9L26 9L26 8L24 8L24 9L23 9L23 10L22 10L22 8L23 8L23 5L21 5L21 3L20 3L20 4L19 4L19 3L17 3L17 1L16 1L16 3L15 3L15 0L14 0L14 2L13 2L13 0L12 0L12 1L11 1L11 0L10 0L10 1L9 1L9 0ZM18 0L18 2L19 2L19 1L20 1L20 2L22 2L22 4L23 4L23 2L24 2L24 7L25 7L25 1L24 1L24 0L23 0L23 1L21 1L21 0ZM11 2L11 4L12 4L12 3L13 3L13 2ZM13 4L13 5L12 5L12 6L11 6L11 8L12 8L12 6L13 6L13 9L15 9L15 11L16 11L16 12L18 12L18 14L17 14L17 13L16 13L16 14L14 14L14 13L13 13L13 14L12 14L12 16L11 16L11 15L10 15L10 14L11 14L11 13L12 13L12 12L13 12L13 11L14 11L14 10L13 10L13 11L11 11L11 13L9 13L9 11L8 11L8 12L7 12L7 13L5 13L5 14L8 14L8 13L9 13L9 15L10 15L10 16L9 16L9 17L10 17L10 18L11 18L11 19L12 19L12 20L11 20L11 23L13 23L13 22L15 22L15 23L14 23L14 25L13 25L13 24L12 24L12 26L11 26L11 28L12 28L12 29L10 29L10 30L9 30L9 32L10 32L10 31L11 31L11 32L12 32L12 31L11 31L11 30L12 30L12 29L13 29L13 28L15 28L15 29L16 29L16 28L17 28L17 29L19 29L19 31L18 31L18 30L16 30L16 31L18 31L18 32L19 32L19 31L20 31L20 28L19 28L19 27L18 27L18 26L19 26L19 25L16 25L16 26L15 26L15 23L16 23L16 24L18 24L18 23L16 23L16 22L19 22L19 23L20 23L20 24L21 24L21 25L23 25L23 24L22 24L22 23L21 23L21 21L20 21L20 22L19 22L19 20L18 20L18 21L14 21L14 20L16 20L16 19L14 19L14 18L15 18L15 17L16 17L16 15L17 15L17 18L19 18L19 19L20 19L20 18L21 18L21 17L18 17L18 14L19 14L19 13L20 13L20 12L21 12L21 13L22 13L22 15L25 15L25 19L24 19L24 18L23 18L23 16L22 16L22 19L21 19L21 20L22 20L22 22L23 22L23 21L24 21L24 22L25 22L25 23L26 23L26 22L25 22L25 21L24 21L24 20L26 20L26 15L25 15L25 14L24 14L24 11L22 11L22 10L21 10L21 9L20 9L20 6L21 6L21 8L22 8L22 6L21 6L21 5L20 5L20 6L19 6L19 8L18 8L18 9L17 9L17 8L16 8L16 6L17 6L17 7L18 7L18 5L19 5L19 4L16 4L16 5L15 5L15 7L14 7L14 6L13 6L13 5L14 5L14 4ZM8 6L8 7L9 7L9 6ZM0 8L0 10L1 10L1 9L2 9L2 10L3 10L3 11L2 11L2 12L4 12L4 10L5 10L5 9L4 9L4 8ZM6 8L6 9L7 9L7 8ZM3 9L3 10L4 10L4 9ZM11 9L11 10L12 10L12 9ZM19 9L19 10L16 10L16 11L19 11L19 12L20 12L20 11L19 11L19 10L20 10L20 9ZM24 9L24 10L25 10L25 9ZM28 9L28 10L27 10L27 11L28 11L28 10L31 10L31 11L32 11L32 10L31 10L31 9ZM13 14L13 15L14 15L14 16L12 16L12 17L13 17L13 18L14 18L14 16L15 16L15 15L14 15L14 14ZM1 15L1 16L2 16L2 15ZM19 15L19 16L20 16L20 15ZM28 15L28 16L30 16L30 15ZM10 16L10 17L11 17L11 16ZM27 17L27 18L28 18L28 17ZM31 17L31 18L32 18L32 17ZM22 19L22 20L24 20L24 19ZM4 22L4 23L5 23L5 22ZM25 25L25 28L28 28L28 25ZM12 26L12 28L13 28L13 27L15 27L15 28L16 28L16 27L15 27L15 26ZM20 26L20 27L22 27L22 26ZM26 26L26 27L27 27L27 26ZM29 26L29 29L28 29L28 31L27 31L27 32L28 32L28 31L29 31L29 29L30 29L30 26ZM23 27L23 28L24 28L24 27ZM31 28L31 29L32 29L32 28ZM26 29L26 30L27 30L27 29ZM25 31L25 32L26 32L26 31ZM0 0L0 7L7 7L7 0ZM1 1L1 6L6 6L6 1ZM2 2L2 5L5 5L5 2ZM26 0L26 7L33 7L33 0ZM27 1L27 6L32 6L32 1ZM28 2L28 5L31 5L31 2ZM0 26L0 33L7 33L7 26ZM1 27L1 32L6 32L6 27ZM2 28L2 31L5 31L5 28Z" fill="#000000"/></g></g></svg>
