<?xml version="1.0" encoding="UTF-8"?>
<svg xmlns="http://www.w3.org/2000/svg" version="1.1" width="100" height="100" viewBox="0 0 100 100"><rect x="0" y="0" width="100" height="100" fill="#ffffff"/><g transform="scale(3.03)"><g transform="translate(0,0)"><path fill-rule="evenodd" d="M8 0L8 1L9 1L9 3L10 3L10 4L11 4L11 3L13 3L13 4L12 4L12 5L11 5L11 6L10 6L10 5L9 5L9 6L8 6L8 8L9 8L9 9L10 9L10 10L8 10L8 9L7 9L7 8L6 8L6 9L7 9L7 10L6 10L6 11L5 11L5 10L4 10L4 9L5 9L5 8L3 8L3 10L2 10L2 8L0 8L0 11L1 11L1 12L0 12L0 14L1 14L1 15L0 15L0 16L1 16L1 15L2 15L2 14L3 14L3 12L6 12L6 13L8 13L8 12L6 12L6 11L10 11L10 10L11 10L11 12L9 12L9 13L10 13L10 15L9 15L9 16L11 16L11 17L10 17L10 18L8 18L8 19L7 19L7 18L5 18L5 17L8 17L8 15L7 15L7 14L4 14L4 15L7 15L7 16L3 16L3 17L2 17L2 18L1 18L1 17L0 17L0 18L1 18L1 20L3 20L3 19L5 19L5 20L4 20L4 22L5 22L5 23L2 23L2 24L1 24L1 22L2 22L2 21L0 21L0 25L2 25L2 24L4 24L4 25L5 25L5 23L7 23L7 24L6 24L6 25L8 25L8 26L9 26L9 27L10 27L10 28L8 28L8 30L9 30L9 31L8 31L8 33L11 33L11 32L14 32L14 30L15 30L15 33L16 33L16 32L17 32L17 33L19 33L19 32L17 32L17 31L20 31L20 32L21 32L21 31L20 31L20 29L21 29L21 28L19 28L19 27L22 27L22 26L17 26L17 27L16 27L16 25L17 25L17 24L18 24L18 25L19 25L19 24L18 24L18 22L20 22L20 21L19 21L19 20L17 20L17 19L21 19L21 18L20 18L20 17L21 17L21 16L20 16L20 15L21 15L21 14L22 14L22 13L23 13L23 14L24 14L24 15L23 15L23 16L22 16L22 20L23 20L23 19L24 19L24 20L25 20L25 22L26 22L26 23L28 23L28 24L24 24L24 26L23 26L23 27L24 27L24 28L22 28L22 32L24 32L24 33L26 33L26 32L27 32L27 31L28 31L28 32L29 32L29 30L28 30L28 29L29 29L29 24L31 24L31 25L30 25L30 26L32 26L32 24L31 24L31 23L33 23L33 22L32 22L32 21L30 21L30 20L33 20L33 15L32 15L32 16L31 16L31 15L30 15L30 12L31 12L31 13L33 13L33 12L31 12L31 11L30 11L30 10L29 10L29 9L28 9L28 10L26 10L26 9L27 9L27 8L26 8L26 9L25 9L25 10L26 10L26 11L25 11L25 12L24 12L24 9L22 9L22 10L21 10L21 8L19 8L19 6L18 6L18 4L19 4L19 5L21 5L21 6L20 6L20 7L21 7L21 6L22 6L22 8L25 8L25 6L24 6L24 5L22 5L22 3L23 3L23 0L22 0L22 1L21 1L21 0L20 0L20 1L18 1L18 0L17 0L17 1L16 1L16 2L15 2L15 0L12 0L12 1L13 1L13 2L11 2L11 1L10 1L10 0ZM16 2L16 3L18 3L18 2ZM19 3L19 4L21 4L21 3ZM24 3L24 4L25 4L25 3ZM13 4L13 7L12 7L12 6L11 6L11 7L10 7L10 6L9 6L9 7L10 7L10 9L13 9L13 11L12 11L12 13L14 13L14 14L11 14L11 16L12 16L12 15L13 15L13 16L14 16L14 15L15 15L15 16L16 16L16 18L17 18L17 17L18 17L18 18L19 18L19 17L18 17L18 16L19 16L19 14L21 14L21 13L22 13L22 12L23 12L23 11L21 11L21 10L19 10L19 9L17 9L17 8L18 8L18 6L17 6L17 4ZM14 6L14 7L13 7L13 8L14 8L14 10L15 10L15 11L14 11L14 13L15 13L15 15L16 15L16 16L17 16L17 15L18 15L18 14L17 14L17 15L16 15L16 12L18 12L18 13L21 13L21 12L18 12L18 10L17 10L17 9L16 9L16 8L14 8L14 7L15 7L15 6ZM16 6L16 7L17 7L17 6ZM23 6L23 7L24 7L24 6ZM11 7L11 8L12 8L12 7ZM32 8L32 9L31 9L31 10L32 10L32 11L33 11L33 10L32 10L32 9L33 9L33 8ZM2 11L2 12L1 12L1 14L2 14L2 12L3 12L3 11ZM26 11L26 12L27 12L27 11ZM28 11L28 13L24 13L24 14L29 14L29 11ZM25 15L25 16L24 16L24 17L23 17L23 18L25 18L25 17L26 17L26 16L27 16L27 18L26 18L26 19L27 19L27 18L28 18L28 19L29 19L29 20L28 20L28 21L27 21L27 20L26 20L26 22L28 22L28 23L30 23L30 21L29 21L29 20L30 20L30 19L32 19L32 18L31 18L31 16L30 16L30 15L29 15L29 16L30 16L30 17L29 17L29 18L28 18L28 15ZM3 17L3 18L2 18L2 19L3 19L3 18L4 18L4 17ZM11 17L11 18L12 18L12 19L8 19L8 20L7 20L7 19L6 19L6 20L7 20L7 21L5 21L5 22L7 22L7 23L8 23L8 24L9 24L9 26L10 26L10 27L11 27L11 28L10 28L10 29L11 29L11 30L10 30L10 31L11 31L11 30L12 30L12 31L13 31L13 30L14 30L14 29L13 29L13 28L14 28L14 27L15 27L15 28L16 28L16 31L17 31L17 29L19 29L19 28L18 28L18 27L17 27L17 28L16 28L16 27L15 27L15 25L16 25L16 24L17 24L17 23L15 23L15 25L14 25L14 23L13 23L13 22L15 22L15 20L16 20L16 21L17 21L17 20L16 20L16 19L15 19L15 17L14 17L14 20L13 20L13 17ZM8 20L8 21L7 21L7 22L8 22L8 23L9 23L9 24L10 24L10 25L11 25L11 26L12 26L12 28L13 28L13 27L14 27L14 26L13 26L13 25L11 25L11 24L13 24L13 23L12 23L12 22L13 22L13 21L10 21L10 20ZM8 21L8 22L9 22L9 23L10 23L10 22L9 22L9 21ZM21 21L21 23L22 23L22 24L23 24L23 23L24 23L24 21ZM28 21L28 22L29 22L29 21ZM22 22L22 23L23 23L23 22ZM20 24L20 25L21 25L21 24ZM25 25L25 28L28 28L28 25ZM26 26L26 27L27 27L27 26ZM30 27L30 28L31 28L31 29L30 29L30 30L31 30L31 29L32 29L32 28L33 28L33 27L32 27L32 28L31 28L31 27ZM12 29L12 30L13 30L13 29ZM25 29L25 31L24 31L24 32L25 32L25 31L27 31L27 29ZM32 30L32 31L30 31L30 32L33 32L33 30ZM0 0L0 7L7 7L7 0ZM1 1L1 6L6 6L6 1ZM2 2L2 5L5 5L5 2ZM26 0L26 7L33 7L33 0ZM27 1L27 6L32 6L32 1ZM28 2L28 5L31 5L31 2ZM0 26L0 33L7 33L7 26ZM1 27L1 32L6 32L6 27ZM2 28L2 31L5 31L5 28Z" fill="#000000"/></g></g></svg>
