<?xml version="1.0" encoding="UTF-8"?>
<svg xmlns="http://www.w3.org/2000/svg" version="1.1" width="100" height="100" viewBox="0 0 100 100"><rect x="0" y="0" width="100" height="100" fill="#ffffff"/><g transform="scale(3.03)"><g transform="translate(0,0)"><path fill-rule="evenodd" d="M9 0L9 1L8 1L8 2L9 2L9 3L8 3L8 4L10 4L10 3L13 3L13 4L11 4L11 5L10 5L10 7L11 7L11 5L12 5L12 7L13 7L13 6L14 6L14 7L15 7L15 8L13 8L13 9L11 9L11 8L6 8L6 9L9 9L9 12L6 12L6 11L7 11L7 10L6 10L6 11L3 11L3 10L4 10L4 9L5 9L5 8L0 8L0 9L1 9L1 11L0 11L0 12L1 12L1 11L3 11L3 12L2 12L2 13L1 13L1 14L0 14L0 15L1 15L1 14L2 14L2 16L0 16L0 17L3 17L3 18L4 18L4 19L3 19L3 20L1 20L1 21L0 21L0 25L1 25L1 21L2 21L2 22L4 22L4 21L3 21L3 20L4 20L4 19L5 19L5 21L7 21L7 20L6 20L6 19L7 19L7 18L5 18L5 17L7 17L7 16L4 16L4 15L3 15L3 14L2 14L2 13L4 13L4 14L6 14L6 15L7 15L7 14L8 14L8 16L10 16L10 17L9 17L9 18L12 18L12 20L13 20L13 21L11 21L11 20L10 20L10 19L9 19L9 21L8 21L8 24L6 24L6 23L7 23L7 22L6 22L6 23L4 23L4 24L6 24L6 25L8 25L8 27L9 27L9 26L10 26L10 25L8 25L8 24L10 24L10 23L11 23L11 22L13 22L13 23L12 23L12 24L13 24L13 25L11 25L11 26L13 26L13 25L14 25L14 26L15 26L15 27L14 27L14 28L13 28L13 29L10 29L10 28L11 28L11 27L10 27L10 28L8 28L8 33L12 33L12 32L13 32L13 33L14 33L14 32L15 32L15 33L16 33L16 32L17 32L17 33L18 33L18 32L17 32L17 31L19 31L19 33L20 33L20 31L21 31L21 32L22 32L22 33L23 33L23 32L24 32L24 33L25 33L25 32L24 32L24 31L27 31L27 32L28 32L28 33L29 33L29 31L30 31L30 32L31 32L31 33L32 33L32 32L31 32L31 31L32 31L32 30L31 30L31 29L33 29L33 28L31 28L31 27L32 27L32 26L33 26L33 24L32 24L32 26L31 26L31 25L30 25L30 24L31 24L31 23L32 23L32 22L33 22L33 21L32 21L32 20L31 20L31 19L32 19L32 18L33 18L33 17L32 17L32 16L31 16L31 15L32 15L32 14L33 14L33 13L31 13L31 15L30 15L30 13L29 13L29 10L28 10L28 8L27 8L27 9L26 9L26 8L25 8L25 6L24 6L24 7L23 7L23 6L22 6L22 7L21 7L21 6L20 6L20 7L19 7L19 6L18 6L18 5L17 5L17 6L16 6L16 5L15 5L15 6L14 6L14 5L13 5L13 4L15 4L15 3L17 3L17 4L19 4L19 5L22 5L22 4L23 4L23 5L24 5L24 4L25 4L25 3L24 3L24 4L23 4L23 3L22 3L22 2L23 2L23 1L24 1L24 0L23 0L23 1L22 1L22 2L18 2L18 1L21 1L21 0L18 0L18 1L17 1L17 0L16 0L16 1L15 1L15 3L13 3L13 2L14 2L14 1L13 1L13 0ZM9 1L9 2L10 2L10 1ZM11 1L11 2L13 2L13 1ZM17 2L17 3L18 3L18 2ZM19 3L19 4L22 4L22 3ZM8 5L8 7L9 7L9 5ZM15 6L15 7L16 7L16 8L18 8L18 6L17 6L17 7L16 7L16 6ZM20 7L20 8L19 8L19 9L13 9L13 10L11 10L11 9L10 9L10 11L11 11L11 12L10 12L10 13L12 13L12 14L11 14L11 15L10 15L10 16L11 16L11 17L13 17L13 16L14 16L14 18L13 18L13 20L14 20L14 21L13 21L13 22L14 22L14 23L13 23L13 24L14 24L14 25L15 25L15 26L17 26L17 27L15 27L15 28L16 28L16 29L13 29L13 30L14 30L14 31L13 31L13 32L14 32L14 31L15 31L15 32L16 32L16 31L17 31L17 30L19 30L19 31L20 31L20 30L21 30L21 31L24 31L24 27L23 27L23 29L22 29L22 28L20 28L20 26L19 26L19 27L18 27L18 25L19 25L19 24L20 24L20 25L22 25L22 26L24 26L24 25L22 25L22 24L23 24L23 23L24 23L24 24L27 24L27 22L25 22L25 21L27 21L27 20L28 20L28 19L26 19L26 18L25 18L25 17L28 17L28 18L29 18L29 17L30 17L30 19L29 19L29 20L30 20L30 21L28 21L28 24L30 24L30 23L29 23L29 22L30 22L30 21L31 21L31 20L30 20L30 19L31 19L31 16L30 16L30 15L29 15L29 13L28 13L28 16L26 16L26 14L25 14L25 13L27 13L27 12L28 12L28 11L27 11L27 10L25 10L25 8L23 8L23 9L22 9L22 8L21 8L21 7ZM29 8L29 9L30 9L30 8ZM31 8L31 10L33 10L33 9L32 9L32 8ZM19 9L19 10L17 10L17 11L18 11L18 12L16 12L16 10L13 10L13 11L15 11L15 12L12 12L12 13L19 13L19 14L18 14L18 15L19 15L19 16L17 16L17 17L16 17L16 15L17 15L17 14L13 14L13 15L12 15L12 16L13 16L13 15L15 15L15 17L16 17L16 18L14 18L14 20L15 20L15 21L14 21L14 22L15 22L15 24L17 24L17 25L18 25L18 24L17 24L17 22L20 22L20 23L21 23L21 24L22 24L22 22L21 22L21 21L20 21L20 20L22 20L22 21L23 21L23 22L24 22L24 21L23 21L23 19L19 19L19 18L20 18L20 16L22 16L22 17L21 17L21 18L22 18L22 17L23 17L23 18L24 18L24 20L25 20L25 18L24 18L24 17L23 17L23 16L25 16L25 14L24 14L24 13L25 13L25 12L26 12L26 11L25 11L25 12L24 12L24 13L23 13L23 14L22 14L22 15L21 15L21 13L19 13L19 12L23 12L23 10L24 10L24 9L23 9L23 10L22 10L22 9ZM19 10L19 11L21 11L21 10ZM30 11L30 12L31 12L31 11ZM4 12L4 13L6 13L6 14L7 14L7 13L6 13L6 12ZM8 13L8 14L9 14L9 13ZM19 14L19 15L20 15L20 14ZM23 14L23 15L24 15L24 14ZM28 16L28 17L29 17L29 16ZM17 17L17 18L16 18L16 19L17 19L17 20L19 20L19 19L18 19L18 18L19 18L19 17ZM0 18L0 19L2 19L2 18ZM15 21L15 22L17 22L17 21ZM2 24L2 25L3 25L3 24ZM25 25L25 28L28 28L28 25ZM29 25L29 28L30 28L30 29L31 29L31 28L30 28L30 27L31 27L31 26L30 26L30 25ZM26 26L26 27L27 27L27 26ZM17 28L17 29L16 29L16 30L15 30L15 31L16 31L16 30L17 30L17 29L19 29L19 30L20 30L20 28ZM21 29L21 30L22 30L22 29ZM25 29L25 30L28 30L28 31L29 31L29 30L28 30L28 29ZM9 30L9 31L10 31L10 32L12 32L12 30L11 30L11 31L10 31L10 30ZM30 30L30 31L31 31L31 30ZM0 0L0 7L7 7L7 0ZM1 1L1 6L6 6L6 1ZM2 2L2 5L5 5L5 2ZM26 0L26 7L33 7L33 0ZM27 1L27 6L32 6L32 1ZM28 2L28 5L31 5L31 2ZM0 26L0 33L7 33L7 26ZM1 27L1 32L6 32L6 27ZM2 28L2 31L5 31L5 28Z" fill="#000000"/></g></g></svg>
